<?xml version="1.0" encoding="UTF-8"?>
<svg width="18px" height="17px" viewBox="0 0 18 17" version="1.1" xmlns="http://www.w3.org/2000/svg" xmlns:xlink="http://www.w3.org/1999/xlink">
    <!-- Generator: Sketch 53.2 (72643) - https://sketchapp.com -->
    <title>Group</title>
    <desc>Created with Sketch.</desc>
    <g id="Page-1" stroke="none" stroke-width="1" fill="none" fill-rule="evenodd">
        <g id="circular" transform="translate(-731.000000, -131.000000)">
            <g id="Group-6" transform="translate(710.000000, 123.000000)">
                <g id="Group" transform="translate(21.000000, 8.000000)">
                    <path d="M15.264,17 L2.736,17 C1.22865071,16.9967915 0.00659315303,15.8054456 2.22044605e-16,14.3327586 L2.22044605e-16,5.86206897 L18,5.86206897 L18,14.3327586 C17.9934068,15.8054456 16.7713493,16.9967915 15.264,17 L15.264,17 Z M1.2,7.03448276 L1.2,14.3327586 C1.20656666,15.1579417 1.8913816,15.8244002 2.736,15.8275862 L15.264,15.8275862 C16.1086184,15.8244002 16.7934333,15.1579417 16.8,14.3327586 L16.8,7.03448276 L1.2,7.03448276 Z" id="Shape" fill="#FF8748" fill-rule="nonzero"></path>
                    <path d="M18.0000066,7.03448276 L-6.58828907e-06,7.03448276 L-9.26738748e-18,4.44344828 C-0.00159304114,3.73294193 0.28576873,3.05091797 0.798868638,2.54741476 C1.31196855,2.04391155 2.00877585,1.76017371 2.736,1.75862069 L15.264,1.75862069 C15.9912242,1.76017371 16.6880315,2.04391155 17.2011314,2.54741476 C17.7142313,3.05091797 18.001593,3.73294193 18,4.44344828 L18.0000066,7.03448276 Z M1.19998827,5.86206897 L16.8000117,5.86206897 L16.8,4.44344828 C16.8015944,4.043885 16.6406613,3.66006831 16.3526047,3.37643505 C16.0645482,3.09280178 15.6729648,2.93258618 15.264,2.93103448 L2.736,2.93103448 C2.32703521,2.93258618 1.93545182,3.09280178 1.64739527,3.37643505 C1.35933872,3.66006831 1.1984056,4.043885 1.2,4.44344828 L1.19998827,5.86206897 Z" id="Shape" fill="#FF8748" fill-rule="nonzero"></path>
                    <rect id="Rectangle" fill="#FF8748" fill-rule="nonzero" x="3.564" y="0.574482759" width="1.2" height="3.55241379" rx="0.6"></rect>
                    <rect id="Rectangle" fill="#FF8748" fill-rule="nonzero" x="13.236" y="0.574482759" width="1.2" height="3.55241379" rx="0.6"></rect>
                    <rect id="Rectangle" fill="#FF8748" fill-rule="nonzero" x="8.4" y="0.574482759" width="1.2" height="3.55241379" rx="0.6"></rect>
                    <path d="M3.564,10.2586207 L5.4,10.2586207" id="Line-4" stroke="#FF8748" stroke-width="0.9" stroke-linecap="round" stroke-linejoin="round"></path>
                    <path d="M7.764,10.2586207 L9.6,10.2586207" id="Line-4-Copy-2" stroke="#FF8748" stroke-width="0.9" stroke-linecap="round" stroke-linejoin="round"></path>
                    <path d="M11.964,10.2586207 L13.8,10.2586207" id="Line-4-Copy-4" stroke="#FF8748" stroke-width="0.9" stroke-linecap="round" stroke-linejoin="round"></path>
                    <path d="M3.564,13.1896552 L5.4,13.1896552" id="Line-4-Copy" stroke="#FF8748" stroke-width="0.9" stroke-linecap="round" stroke-linejoin="round"></path>
                    <path d="M7.764,13.1896552 L9.6,13.1896552" id="Line-4-Copy-3" stroke="#FF8748" stroke-width="0.9" stroke-linecap="round" stroke-linejoin="round"></path>
                    <path d="M11.964,13.1896552 L13.8,13.1896552" id="Line-4-Copy-5" stroke="#FF8748" stroke-width="0.9" stroke-linecap="round" stroke-linejoin="round"></path>
                </g>
            </g>
        </g>
    </g>
</svg>