<svg width="16px" height="16px" viewBox="0 0 16 16" version="1.1" xmlns="http://www.w3.org/2000/svg" xmlns:xlink="http://www.w3.org/1999/xlink">
    <g id="Page-1" stroke="none" stroke-width="1" fill="none" fill-rule="evenodd">
        <g id="Contact-Us" transform="translate(-597.000000, -601.000000)" fill="#2119A7" fill-rule="nonzero">
            <g id="noun_clock_2696498" transform="translate(597.000000, 601.000000)">
                <path d="M8,0 C3.58095238,0 0,3.58095238 0,8 C0,12.4190476 3.58095238,16 8,16 C12.4190476,16 16,12.4190476 16,8 C16,3.58095238 12.4190476,0 8,0 Z M11.5047619,11.5047619 C11.4285714,11.5809524 11.3333333,11.6190476 11.2380952,11.6190476 C11.1428571,11.6190476 11.047619,11.5809524 10.9714286,11.5047619 L7.75238095,8.28571429 C7.75238095,8.28571429 7.73333333,8.26666667 7.73333333,8.26666667 L7.73333333,8.26666667 C7.71428571,8.24761905 7.6952381,8.22857143 7.67619048,8.20952381 C7.67619048,8.20952381 7.65714286,8.19047619 7.65714286,8.17142857 C7.65714286,8.15238095 7.63809524,8.15238095 7.63809524,8.13333333 C7.63809524,8.11428571 7.63809524,8.11428571 7.61904762,8.0952381 C7.61904762,8.0952381 7.61904762,8.07619048 7.6,8.05714286 C7.6,8.03809524 7.6,8 7.6,7.98095238 L7.6,2.28571429 C7.6,2.07619048 7.77142857,1.9047619 7.98095238,1.9047619 C8.19047619,1.9047619 8.36190476,2.07619048 8.36190476,2.28571429 L8.36190476,7.84761905 L11.4857143,10.9714286 C11.6571429,11.1238095 11.6571429,11.352381 11.5047619,11.5047619 Z" id="Shape"></path>
            </g>
        </g>
    </g>
</svg>
