<svg width="16px" height="16px" viewBox="0 0 16 16" version="1.1" xmlns="http://www.w3.org/2000/svg" xmlns:xlink="http://www.w3.org/1999/xlink">
    <g id="Page-1" stroke="none" stroke-width="1" fill="none" fill-rule="evenodd">
        <g id="Contact-Us" transform="translate(-596.000000, -415.000000)">
            <g id="Group-2" transform="translate(596.000000, 413.000000)">
                <g id="Group" transform="translate(0.000000, 2.000000)">
                    <circle id="Oval" fill="#2119A7" cx="8" cy="8" r="8"></circle>
                    <g id="round-phone-24px" transform="translate(4.000000, 4.000000)" fill="#FFFFFF" fill-rule="nonzero">
                        <path d="M7.21615677,5.45545432 L6.08499116,5.32630478 C5.81333327,5.29513076 5.5461288,5.38865283 5.35463226,5.58015041 L4.5352052,6.39958192 C3.27489076,5.7582877 2.24170013,4.72954488 1.60040939,3.46477017 L2.42428985,2.64088523 C2.61578639,2.44938765 2.70930796,2.18218173 2.6781341,1.91052237 L2.54898528,0.788257481 C2.49554438,0.338460839 2.11700471,0 1.6627571,0 L0.892317532,0 C0.389082438,0 -0.0295379056,0.418622617 0.00163594976,0.921860444 C0.237666569,4.72509145 3.27934417,7.76233214 7.07810112,7.99836404 C7.58133622,8.02953807 7.99995656,7.61091545 7.99995656,7.10767762 L7.99995656,6.33723387 C8.00440997,5.88743723 7.66595097,5.5088955 7.21615677,5.45545432 Z" id="Path"></path>
                    </g>
                </g>
            </g>
        </g>
    </g>
</svg>
