<svg width="16px" height="16px" viewBox="0 0 16 16" version="1.1" xmlns="http://www.w3.org/2000/svg" xmlns:xlink="http://www.w3.org/1999/xlink">
    <g id="Page-1" stroke="none" stroke-width="1" fill="none" fill-rule="evenodd">
        <g id="Contact-Us" transform="translate(-251.000000, -601.000000)" fill="#2119A7" fill-rule="nonzero">
            <g id="Group-15" transform="translate(251.000000, 545.000000)">
                <g id="Group-10" transform="translate(0.000000, 54.000000)">
                    <g id="flogo-HexRBG-Wht-250-BRC-Site" transform="translate(0.000000, 2.000000)">
                        <path d="M15.1168,0 L0.8832,0 C0.395422109,-2.98677816e-17 5.97355633e-17,0.395422109 0,0.8832 L0,15.1168 C5.97355633e-17,15.6045779 0.395422109,16 0.8832,16 L8.54656,16 L8.54656,9.81248 L6.46848,9.81248 L6.46848,7.39072 L8.54656,7.39072 L8.54656,5.6096 C8.54656,3.54304 9.80864,2.41792 11.65248,2.41792 C12.2747678,2.41570255 12.8967108,2.4475368 13.51552,2.51328 L13.51552,4.672 L12.24064,4.672 C11.24032,4.672 11.04704,5.14816 11.04704,5.84768 L11.04704,7.39008 L13.44512,7.39008 L13.1328,9.81184 L11.04704,9.81184 L11.04704,16 L15.1168,16 C15.6045779,16 16,15.6045779 16,15.1168 L16,0.8832 C16,0.395422109 15.6045779,2.98677816e-17 15.1168,0 Z" id="Path"></path>
                    </g>
                </g>
            </g>
        </g>
    </g>
</svg>
