<svg width="37px" height="31px" viewBox="0 0 37 31" version="1.1" xmlns="http://www.w3.org/2000/svg" xmlns:xlink="http://www.w3.org/1999/xlink">
    <g id="Page-1" stroke="none" stroke-width="1" fill="none" fill-rule="evenodd">
        <g id="01-copy-13" transform="translate(-1260.000000, -3742.000000)" fill="#FFFFFF" fill-rule="nonzero">
            <g id="Group-50" transform="translate(0.000000, 3281.000000)">
                <g id="Group-29">
                    <path d="M1271.63576,492 C1285.59808,492 1293.23488,480.072444 1293.23488,469.728921 C1293.23488,469.39014 1293.23488,469.052884 1293.21268,468.717155 C1294.69835,467.609111 1295.98081,466.23715 1297,464.665509 C1295.61454,465.298515 1294.14483,465.71364 1292.63992,465.897026 C1294.22462,464.918805 1295.41066,463.380233 1295.97732,461.567641 C1294.48719,462.479384 1292.85696,463.121935 1291.15696,463.467565 C1288.80388,460.887627 1285.06486,460.256178 1282.03653,461.927299 C1279.0082,463.598419 1277.44369,467.156509 1278.22028,470.606396 C1272.11661,470.290886 1266.42982,467.318266 1262.5752,462.428329 C1260.56036,466.004833 1261.5895,470.580239 1264.92544,472.877149 C1263.71738,472.84023 1262.53565,472.504204 1261.48,471.897429 C1261.48,471.929476 1261.48,471.963049 1261.48,471.996622 C1261.48099,475.722599 1264.02819,478.93178 1267.5702,479.669569 C1266.45261,479.983842 1265.28002,480.029783 1264.14252,479.803861 C1265.137,482.992411 1267.98693,485.17673 1271.23468,485.239627 C1268.54661,487.417951 1265.22597,488.600475 1261.80708,488.596923 C1261.2031,488.595727 1260.5997,488.55802 1260,488.483996 C1263.47154,490.781113 1267.51087,491.999568 1271.63576,491.993896" id="Path"></path>
                </g>
            </g>
        </g>
    </g>
</svg>
