<svg width="370px" height="394px" viewBox="0 0 370 394" version="1.1" xmlns="http://www.w3.org/2000/svg" xmlns:xlink="http://www.w3.org/1999/xlink">
    <defs>
        <polygon id="path-1" points="0.0705996772 0.591984483 170.580411 0.591984483 170.580411 168.267241 0.0705996772 168.267241"></polygon>
    </defs>
    <g id="Page-1" stroke="none" stroke-width="1" fill="none" fill-rule="evenodd">
        <g id="Dashboard" transform="translate(-200.000000, -1589.000000)">
            <g id="Group-27" transform="translate(200.000000, 1590.000000)">
                <path d="M146.970567,224.818134 C146.970567,224.818134 161.118743,218.353962 162.150063,215.730574 L179.483696,215.730574 L183.51296,214.325712 C183.51296,214.325712 185.85574,213.764445 188.009877,216.855367 L193.633,222.944609 C193.633,222.944609 195.225729,224.630669 197.473623,221.727212 C199.722646,218.821497 209.186392,208.705134 209.186392,208.705134 L215.183411,208.705134 L215.183411,202.054626 L222.584516,195.965384 C222.584516,195.965384 237.202603,196.15285 247.602782,200.087367 L247.602782,179.947247 L244.136056,186.504022 C244.136056,186.504022 242.917223,186.785221 240.106791,184.069229 C240.106791,184.069229 237.390116,182.008238 243.386005,176.948928 C243.386005,176.948928 217.712574,168.049962 202.909233,165.615169 L192.414168,165.615169 L185.574471,160.838186 C185.574471,160.838186 184.730664,159.900859 182.387884,161.680652 L151.279972,161.680652 L139.660959,152.500488 C139.660959,152.500488 134.882773,150.158298 132.166097,152.687953 L123.358647,165.333971 L121.672161,166.738833 L116.142795,162.149316 L103.399835,150.533229 L94.4048717,149.783367 L88.4078527,157.090005 L88.7828782,173.109272 C88.7828782,173.109272 96.1851132,183.319367 106.39891,184.724229 C106.39891,184.724229 111.177096,185.941626 114.550066,180.603376 C114.550066,180.603376 120.17206,184.162962 121.389763,189.033678 C121.389763,189.033678 124.57635,200.837229 126.356591,201.024695 C126.356591,201.024695 126.731617,207.675203 124.57635,208.517669 L132.447367,208.611402 C132.447367,208.611402 134.976529,214.60691 138.537012,214.888109 L143.035059,215.169307 L143.035059,222.007281 C143.035059,222.007281 143.878866,224.630669 146.970567,224.818134" id="Fill-1" stroke="#473EDA" stroke-width="0.8" fill="#F2F6FF" stroke-dasharray="8"></path>
                <path d="M88.7832171,173.109159 C88.7832171,173.109159 65.2650526,166.551254 65.2650526,189.783427 C65.2650526,189.783427 72.7599144,202.523177 76.8829355,204.396703 C76.8829355,204.396703 78.008012,210.767142 72.010993,210.767142 C72.010993,210.767142 67.8879718,212.639539 65.2650526,210.392211 L60.767006,202.898108 C60.767006,202.898108 56.6439849,199.900918 52.5209637,202.523177 C52.5209637,202.523177 47.6490212,208.142625 44.276051,204.770504 C44.276051,204.770504 37.9040065,200.649651 33.782115,206.64403 L33.4070895,213.389401 L24.4121258,229.502401 L24.4121258,233.623254 L19.5401833,239.618763 L7.17111985,238.49397 C7.17111985,238.49397 -0.698767365,235.121849 0.0501540107,242.241022 L0.0501540107,259.852616 C0.0501540107,259.852616 3.42312419,267.345591 10.54409,268.470384 C10.54409,268.470384 18.041211,268.095453 19.1651578,274.090961 C19.1651578,274.090961 23.288179,286.45578 28.9101725,287.954375 C28.9101725,287.954375 37.5301106,290.203961 35.2810873,295.823409 C35.2810873,295.823409 27.035045,306.689634 35.2810873,309.686823 C35.2810873,309.686823 43.1521041,312.685142 43.5271296,303.317513 C43.5271296,303.317513 50.6480955,298.071866 54.3960911,301.443987 C58.1429572,304.816108 57.3940358,305.191039 61.1420315,303.692444 C64.8900272,302.193849 69.7619697,302.193849 72.010993,305.191039 C74.2600163,308.188228 79.5069843,310.061754 85.1289778,306.689634 C90.7509713,303.317513 100.12096,295.448478 100.12096,295.448478 C100.12096,295.448478 103.118905,292.451289 105.742954,296.198341 C108.365873,299.945392 110.614896,300.320323 112.488894,298.071866 C114.364022,295.823409 117.735862,294.699746 119.60986,296.573272 C121.483858,298.445668 127.480877,300.320323 128.230928,293.574953 C128.979849,286.830711 124.106777,286.830711 124.106777,286.830711 C124.106777,286.830711 116.611915,281.210134 121.858883,277.838013 C127.105851,274.465892 131.977794,280.461401 131.977794,280.461401 L142.47286,287.579444 C142.47286,287.579444 150.717772,293.574953 151.842849,297.696935 C152.966796,301.818918 158.963815,304.816108 164.584679,302.193849 C170.207802,299.570461 172.081799,299.19553 171.706774,297.322004 C171.331748,295.448478 174.704719,295.073547 176.579846,296.947073 L178.452714,298.820599 L182.950761,299.19553 C182.950761,299.19553 188.94778,302.56878 189.696701,308.938091 C190.446752,315.30853 200.940688,313.060073 200.940688,313.060073 C200.940688,313.060073 205.06258,320.554177 203.938633,323.926297 C203.938633,323.926297 212.559701,328.422082 222.678611,326.548556 C222.678611,326.548556 222.678611,316.057263 228.67563,314.183737 C228.67563,314.183737 234.297624,311.186547 236.171622,311.561478 C238.045619,311.936409 238.420645,305.940901 240.669668,305.56597 C242.917562,305.191039 248.914581,303.692444 247.040583,298.820599 C245.166585,293.949884 244.79156,290.203961 248.16566,288.704237 C251.53863,287.205642 251.53863,283.458591 251.53863,281.210134 C251.53863,278.961677 253.786523,275.214625 255.660521,274.465892 C257.535649,273.71603 260.158568,270.343909 259.783542,267.345591 C259.409647,264.348401 262.032566,262.101073 265.03051,262.101073 C268.029585,262.101073 272.151476,261.351211 272.151476,256.479366 C272.151476,251.608651 271.77758,247.861599 271.77758,247.861599 C271.77758,247.861599 257.160623,251.608651 251.53863,244.864409 L237.671724,231.374797 C237.671724,231.374797 238.79567,228.002677 241.41859,228.751409 C244.041509,229.502401 244.416534,224.255625 243.667613,222.007168 C242.917562,219.759841 248.540685,214.887996 248.540685,214.887996 L247.603121,200.087254 C247.603121,200.087254 237.608466,196.152737 222.584855,195.965272 L215.18262,202.054513 L215.18262,208.706151 L209.186731,208.706151 L196.568027,222.75703 C196.568027,222.75703 194.694029,225.629996 189.947471,219.384909 C189.947471,219.384909 186.948397,213.888556 183.51217,214.325599 L179.484034,215.730461 L162.149272,215.730461 C162.149272,215.730461 155.215819,221.382659 146.970906,224.818022 C146.970906,224.818022 143.347166,224.630556 142.97327,221.258435 C142.598245,217.885185 143.034268,215.169194 143.034268,215.169194 C143.034268,215.169194 140.978406,208.413659 132.446576,208.611289 C131.104617,208.642909 124.576689,208.517556 124.576689,208.517556 C124.576689,208.517556 126.605441,207.519246 126.35693,201.024582 C126.35693,201.024582 124.29429,200.27472 121.390102,189.033565 C121.390102,189.033565 120.64118,184.536651 114.550405,180.603263 C114.550405,180.603263 110.614896,186.035246 106.399249,184.724116 C106.399249,184.724116 96.7479903,183.787918 88.7832171,173.109159" id="Fill-3" fill="#FFBB92"></path>
                <ellipse id="Oval" stroke="#FF7F32" stroke-width="0.8" fill="#FFFFFF" cx="198.454545" cy="271.237179" rx="5.04545455" ry="5.03846154"></ellipse>
                <g id="Group-8" transform="translate(198.808691, 223.912879)">
                    <mask id="mask-2" fill="white">
                        <use xlink:href="#path-1"></use>
                    </mask>
                    <g id="Clip-7"></g>
                    <path d="M142.056152,101.762381 C142.056152,101.762381 134.809801,88.1474155 126.064478,94.2671483 L111.322136,103.260976 C111.322136,103.260976 103.202608,104.009709 101.952147,104.009709 L87.5848299,118.249183 C87.5848299,118.249183 84.7111407,123.494829 91.0831852,126.617372 C91.0831852,126.617372 101.452866,129.239631 101.203225,135.23514 C100.952455,141.230648 101.203225,146.600519 101.203225,146.600519 C101.203225,146.600519 104.076915,149.099683 103.451119,150.099122 L98.7045615,154.968709 C98.7045615,154.968709 96.4555382,156.218855 92.7075425,155.843924 L88.0852405,160.965347 C88.0852405,160.965347 71.7185409,166.959726 59.350607,167.709588 L54.728305,165.586484 C54.728305,165.586484 51.8546157,164.961976 50.2313879,166.460571 C50.2313879,166.460571 46.6076477,169.333536 42.6100116,167.833812 C42.6100116,167.833812 39.6120669,168.334097 40.2356032,157.841674 C40.2356032,157.841674 38.23735,153.720821 35.9894562,150.722502 L30.2420777,142.354312 C30.2420777,142.354312 25.8072884,139.481347 22.4343182,142.354312 C22.4343182,142.354312 19.560629,144.416433 17.9362716,142.354312 L15.9380183,140.60614 L11.3767144,140.60614 L6.75441232,132.924571 L6.75441232,123.307364 L0.0705996772,114.564243 L0.0705996772,107.195493 L5.13005494,100.013079 C5.13005494,100.013079 13.56361,104.509993 23.8700333,102.635338 C23.8700333,102.635338 22.621831,88.8961483 37.361914,87.6482603 C37.361914,87.6482603 38.4869904,87.8357259 39.1749137,85.649381 C39.1749137,85.649381 40.423116,81.4652862 42.6100116,81.4031741 C42.6100116,81.4031741 49.1695688,80.6544414 48.4816455,75.9700621 C48.4816455,75.9700621 44.2964967,66.7277862 49.3570815,64.7921483 C49.3570815,64.7921483 52.7921794,64.2297517 52.7300517,57.2969155 C52.7300517,57.2969155 53.1039476,52.8632431 56.8519433,50.5526741 C56.8519433,50.5526741 60.9749644,48.5549241 60.9749644,43.4335017 C60.9749644,43.4335017 60.4745539,38.4995448 66.2219324,38.1878552 C66.2219324,38.1878552 73.4682833,38.7491224 73.3428983,32.5672776 C73.3428983,32.5672776 73.2186428,25.4481052 72.9690024,23.9495103 C72.9690024,23.9495103 71.2825173,14.9568121 77.4659194,16.2047 C77.4659194,16.2047 81.0264023,18.1403379 83.2754256,16.1425879 C85.524449,14.1437086 92.332517,5.33847586 92.332517,5.33847586 C92.332517,5.33847586 97.7669978,2.02959655 101.578251,2.71621724 C105.388374,3.40283793 106.388066,0.591984483 106.388066,0.591984483 C106.388066,0.591984483 115.819053,13.894131 134.559031,23.1375362 C134.559031,23.1375362 134.809801,38.8123638 138.308156,41.8095534 C138.308156,41.8095534 145.303737,48.8033724 148.301682,49.5543638 C148.301682,49.5543638 159.796439,59.2957948 162.794384,64.0422862 L169.540324,72.5347 C169.540324,72.5347 172.038988,78.0299241 169.290684,82.2772603 L157.798186,100.262657 C157.798186,100.262657 150.800346,105.009148 142.056152,101.762381" id="Fill-6" stroke="#473EDA" stroke-width="0.8" fill="#F6F8FA" stroke-dasharray="8.800000000000001" mask="url(#mask-2)"></path>
                </g>
                <path d="M333.368061,247.050303 C333.368061,247.050303 346.861071,233.247872 356.480701,233.997734 C366.10146,234.746466 368.349354,224.630104 368.349354,224.630104 C368.349354,224.630104 368.099713,216.886423 368.349354,216.886423 C368.598994,216.886423 359.478646,206.269777 355.73178,204.896535 C355.73178,204.896535 349.734761,202.522725 348.110403,200.399622 C348.110403,200.399622 345.611739,197.277078 348.110403,194.779044 L351.108348,192.780165 C351.108348,192.780165 351.858399,189.907199 351.607629,187.534518 C351.607629,187.534518 348.485429,183.288311 351.607629,178.166889 C351.607629,178.166889 353.857782,175.919561 353.857782,172.921242 L313.12911,172.921242 C313.12911,172.921242 300.511536,177.793087 300.136511,182.039294 C300.136511,182.039294 300.511536,188.033673 304.134147,190.407484 L305.197095,224.504751 C305.197095,224.504751 313.37988,236.745346 333.368061,247.050303" id="Fill-9" stroke="#473EDA" stroke-width="0.8" fill="#F6F8FA" stroke-dasharray="8.800000000000001"></path>
                <path d="M331.369243,147.254728 C331.369243,147.254728 338.116313,140.696823 342.238205,140.696823 L353.843662,140.696823 C353.981472,140.696823 354.109117,140.740866 354.21191,140.831211 C354.731523,141.284065 356.204515,142.874134 354.793651,145.381203 C354.793651,145.381203 351.421811,151.563047 353.482191,154.561366 L358.499852,161.992228 C358.525832,162.030625 358.551813,162.062246 358.586831,162.092737 C358.918931,162.38297 360.93074,164.335547 358.167751,166.926185 C355.737992,169.204004 354.415237,171.726884 354.001805,172.602099 C353.908049,172.799728 353.70811,172.921694 353.491228,172.921694 L313.225691,172.921694 C313.162433,172.921694 313.105954,172.929599 313.044956,172.951056 C312.005728,173.319211 301.692527,177.062875 300.259072,181.536073 C300.167574,181.820659 299.905508,182.010384 299.610684,181.959565 C297.314218,181.563177 288.184832,179.503315 286.288243,171.50328 C286.275817,171.450203 286.26904,171.402772 286.271299,171.348565 C286.316483,169.521341 287.258565,134.365909 291.933958,126.961022 C291.989308,126.874065 292.016418,126.779203 292.016418,126.675306 L292.016418,115.029858 C292.016418,115.029858 292.757432,110.027013 283.180727,109.971677 C283.068897,109.971677 282.961586,109.941185 282.86783,109.877944 C282.330142,109.515435 280.596214,108.016841 281.296563,104.174927 C281.319155,104.049573 281.3056,103.921961 281.244602,103.811289 C280.230226,101.934375 270.899772,84.6457629 269.365782,80.5678233 C269.226842,80.1985388 269.506982,79.8077974 269.90234,79.8077974 L281.521353,79.8077974 C281.521353,79.8077974 286.902742,80.5508836 283.817819,84.9868147 C283.788449,85.0297284 283.751173,85.0715129 283.711637,85.1053922 L279.648484,88.6141595 C279.648484,88.6141595 278.335895,90.486556 281.334969,90.6740216 C281.334969,90.6740216 287.519501,89.5503578 287.144476,92.5486767 C287.144476,92.5486767 286.581937,97.9817888 288.455935,99.8541853 C288.455935,99.8541853 292.349649,106.528409 298.661825,105.676909 C298.728471,105.667875 298.791728,105.669004 298.857244,105.685944 C299.489818,105.855341 303.072892,106.997073 303.072892,111.095341 L303.072892,120.496849 C303.072892,120.583806 303.057078,120.670763 303.016413,120.748685 C302.792753,121.186858 302.142106,122.975685 306.015487,123.638591 C306.050504,123.645366 306.088911,123.648754 306.123928,123.648754 L315.924293,123.648754 C315.978513,123.648754 316.023697,123.653272 316.076788,123.669082 C317.13183,123.973996 329.227531,127.908513 327.434864,147.442194 C327.434864,147.442194 328.183786,150.251918 331.369243,147.254728" id="Fill-11" stroke="#473EDA" stroke-width="0.8" fill="#F6F8FA" stroke-dasharray="8.800000000000001"></path>
                <path d="M258.612943,199.977711 C258.612943,199.977711 250.741927,211.593797 248.492903,214.965918 C248.492903,214.965918 242.964666,219.650297 243.620961,222.085091 C243.620961,222.085091 244.838664,229.391728 241.371937,228.830461 C241.371937,228.830461 239.21667,227.706797 237.623942,231.45272 L251.490848,244.941203 C251.490848,244.941203 254.771191,251.311642 271.729799,247.940651 C271.729799,247.940651 269.855801,239.010065 276.227845,240.195841 C276.227845,240.195841 279.694572,241.881901 282.037351,240.133728 L290.074419,230.547013 C290.773638,229.713582 291.642296,229.038254 292.631821,228.583142 C294.808551,227.581444 298.705653,226.004927 300.339047,226.707358 C300.339047,226.707358 304.743337,227.081159 305.148862,224.583125 L304.900351,217.308108 C304.900351,217.308108 294.874067,210.00147 290.000995,210.563866 L279.038277,201.851237 C279.038277,201.851237 271.636042,202.694832 270.13707,201.382573 C270.13707,201.382573 262.453566,195.763125 258.612943,199.977711" id="Fill-13" stroke="#473EDA" stroke-width="0.8" fill="#F6F8FA" stroke-dasharray="8.800000000000001"></path>
                <path d="M247.602782,179.946795 C247.602782,179.946795 256.285978,183.037717 261.657201,182.288984 C261.657201,182.288984 266.530274,184.16251 266.406018,188.033786 C266.406018,188.033786 269.903244,189.907312 272.401907,187.909562 C272.401907,187.909562 277.650005,187.285053 277.898516,189.783088 C278.149286,192.281122 288.892862,190.782528 289.018248,189.158579 C289.018248,189.158579 292.516603,186.660545 294.640241,189.158579 C294.640241,189.158579 297.01352,194.653803 304.134486,190.407597 L304.900351,217.307769 C304.900351,217.307769 293.35928,209.486166 290.000995,210.563528 L279.038277,201.850898 C279.038277,201.850898 271.621357,202.492347 270.13707,201.382234 C270.13707,201.382234 263.063547,195.684864 258.612943,199.977372 L248.492903,214.966709 C248.492903,214.966709 246.415578,181.977295 247.602782,179.946795" id="Fill-15" stroke="#473EDA" stroke-width="0.8" fill="#F6F8FA" stroke-dasharray="8.800000000000001"></path>
                <path d="M275.77533,134.202498 L275.77533,143.694352 C275.77533,143.694352 274.775638,150.439722 272.276974,152.688179 L261.657653,161.680878 C261.657653,161.680878 258.783964,165.302576 256.53607,162.304257 L253.912021,159.05749 C253.912021,159.05749 252.538434,157.308188 250.788692,159.931576 L248.290028,163.054119 C248.290028,163.054119 246.915311,164.053559 244.917058,163.678628 C244.917058,163.678628 243.793111,164.303136 243.793111,169.548783 C243.793111,174.795559 243.386457,176.949153 243.386457,176.949153 C243.386457,176.949153 237.796092,180.85205 240.107243,184.069455 C240.107243,184.069455 242.980932,186.848688 244.135378,186.504248 C245.292083,186.160938 247.603234,179.946343 247.603234,179.946343 C247.603234,179.946343 256.784581,183.163748 261.657653,182.289662 C261.657653,182.289662 266.904621,184.411636 266.40534,188.033334 C266.40534,188.033334 270.402976,189.658412 272.402359,187.90911 C272.402359,187.90911 277.398557,187.284602 277.898968,189.782636 C277.898968,189.782636 281.521578,193.655041 289.018699,189.159257 C289.018699,189.159257 293.140591,186.785447 294.639563,189.159257 C296.138536,191.531938 299.261865,193.530817 304.133808,190.407145 C304.133808,190.407145 300.886223,188.90855 300.136172,182.038955 C300.136172,182.038955 289.397114,181.266507 286.271525,171.348903 C286.271525,171.348903 286.893931,135.634464 292.016644,126.674516 L292.016644,115.030197 C292.016644,115.030197 293.085241,110.222722 283.180953,109.972016 C283.180953,109.972016 280.594181,109.765352 281.244828,103.810498 L269.366008,80.5670328 L265.030623,80.5670328 C265.030623,80.5670328 262.032679,79.8702483 261.781909,84.3671621 L261.781909,90.2373172 C261.781909,90.2373172 262.282319,91.9854897 258.659709,92.1108431 L247.915002,93.8590155 C247.915002,93.8590155 244.542032,93.3598603 244.542032,97.7314207 L244.542032,101.602697 C244.542032,101.602697 243.416956,102.977067 241.793728,104.351438 L233.735199,112.406809 C233.735199,112.406809 232.299483,114.4678 235.547069,114.343576 C235.547069,114.343576 237.671837,113.968645 238.795783,114.968084 L254.411302,128.456567 C254.411302,128.456567 259.534015,130.330093 263.655907,129.58136 L265.906059,132.703903 C265.906059,132.703903 275.649944,131.57911 275.77533,134.202498" id="Fill-17" stroke="#473EDA" stroke-width="0.8" fill="#F6F8FA" stroke-dasharray="12"></path>
                <path d="M267.904539,40.1521776 L274.150068,40.1521776 C274.150068,40.1521776 277.398783,39.9026 277.649553,42.4006345 L277.649553,54.1409448 C277.649553,54.1409448 277.150272,60.6356086 271.651405,61.1358931 L263.906902,61.1358931 C263.906902,61.1358931 261.90752,64.3837897 262.656441,68.1297121 L269.366234,80.5679362 L265.030849,80.5679362 C265.030849,80.5679362 262.001276,79.9332638 261.782135,84.3669362 L261.782135,90.2370914 C261.782135,90.2370914 262.314174,92.1422379 258.658805,92.1106172 L247.915228,93.859919 C247.915228,93.859919 244.480131,94.0157638 244.541129,97.7311948 L244.541129,101.6036 L241.793954,104.351212 L233.735424,112.406583 C233.735424,112.406583 232.393466,114.217997 235.546165,114.34335 C235.546165,114.34335 237.951072,113.780953 238.79488,114.967859 L254.411528,128.456341 C254.411528,128.456341 258.534549,130.267755 263.656132,129.581134 L265.905156,132.703678 C265.905156,132.703678 274.431338,131.173462 275.775555,134.202272 C275.775555,134.202272 277.180771,147.53491 272.2772,152.687953 L261.657879,161.680652 C261.657879,161.680652 258.815819,165.364462 256.536296,162.30516 L253.911118,159.057264 C253.411837,158.96466 252.850428,157.528178 250.788918,159.93135 L248.290254,163.055022 C248.290254,163.055022 246.260372,164.272419 244.916154,163.678402 C244.916154,163.678402 243.480439,166.270169 243.855465,168.706091 L243.386683,176.948928 C243.386683,176.948928 209.650203,166.057859 202.908781,165.615169 C202.52246,165.590324 192.414845,165.615169 192.414845,165.615169 L185.574019,160.838186 C185.574019,160.838186 185.105237,159.807126 182.388562,161.680652 L151.280649,161.680652 L139.661637,152.500488 C139.661637,152.500488 134.882321,150.345764 132.165646,152.687953 L123.358195,165.333971 L121.67171,166.738833 L103.400513,150.533229 L94.4055495,149.783367 C94.4055495,149.783367 93.0003335,146.130048 90.4700411,146.504979 C90.4700411,146.504979 82.5052679,141.540531 82.3177551,139.198341 C82.3177551,139.198341 79.9749755,136.013686 83.1615625,132.921634 C83.1615625,132.921634 88.033505,128.050919 88.5022869,126.458591 L88.9710687,124.866264 L88.9710687,116.716031 C88.9710687,116.716031 80.9125392,107.067203 80.7250264,106.693402 L80.5375137,106.318471 C80.5375137,106.318471 78.3822467,103.133816 81.1938083,100.416695 C84.0042402,97.6995741 84.7542912,96.2947121 84.7542912,96.2947121 C84.7542912,96.2947121 85.9719944,93.0163241 83.536588,90.3940655 L81.3801914,88.4268069 C81.3801914,88.4268069 79.9749755,83.5549621 81.8501029,81.0264362 C81.8501029,81.0264362 83.2553189,77.841781 82.3177551,74.0936 L77.8208381,68.6604879 C77.8208381,68.6604879 76.0394671,64.9134362 78.4760031,60.978919 L83.9104839,52.7360828 C83.9104839,52.7360828 86.3470199,50.9562897 88.2210178,52.8298155 C88.2210178,52.8298155 89.9075028,55.3583414 92.0627698,52.8298155 L92.0627698,46.6468414 C92.0627698,46.6468414 96.2784177,41.3074621 99.5587611,43.8371172 L104.055678,47.6779017 C104.055678,47.6779017 106.492214,50.1126948 109.116263,47.4904362 L109.116263,41.7761259 C109.116263,41.7761259 115.487178,34.2820224 120.827902,34.1882897 L135.069834,34.1882897 C135.069834,34.1882897 140.88047,37.1866086 143.128364,39.2464707 C143.128364,39.2464707 144.721092,41.6823931 147.437768,39.1527379 C147.437768,39.1527379 149.125382,36.0618155 149.031626,32.5959621 C149.031626,32.5959621 154.372351,13.9544362 163.086045,11.1435828 C163.086045,11.1435828 165.522581,10.2073845 167.582962,11.7059793 C167.582962,11.7059793 171.613356,13.9544362 172.456034,11.7059793 L172.456034,4.96173793 C172.456034,4.96173793 177.421733,-3.18736552 180.795833,1.40215172 C180.795833,1.40215172 184.356316,10.6760483 192.694985,10.769781 C192.694985,10.769781 196.911762,10.4885828 199.442055,14.1419017 C199.442055,14.1419017 202.064974,19.6687466 207.311942,19.3875483 L210.311016,18.1701517 C210.311016,18.1701517 214.714177,14.048169 218.180904,18.1701517 L219.118467,19.2938155 L219.118467,31.471169 L219.118467,33.3458241 C219.118467,33.3458241 219.681005,39.9963328 228.113431,36.6230828 L246.665897,19.5750138 C246.665897,19.5750138 254.443157,14.1419017 256.317155,19.481281 L256.317155,25.2893241 C256.317155,25.2893241 257.909884,27.2565828 259.783881,26.3192552 C259.783881,26.3192552 263.531877,25.3830569 264.280798,30.7224362 L264.280798,36.7168155 C264.280798,36.7168155 264.593696,40.4017552 267.904539,40.1521776" id="Fill-19" stroke="#473EDA" stroke-width="0.8" fill="#F6F8FA" stroke-dasharray="8"></path>
                <ellipse id="Oval-Copy-13" stroke="#AEAEAE" stroke-width="0.8" fill="#ECECEC" cx="206.443182" cy="57.5224359" rx="2.94318182" ry="2.93910256"></ellipse>
                <ellipse id="Oval-Copy-14" stroke="#E4F7FF" stroke-width="0.8" fill="#FFFFFF" cx="277.920455" cy="123.862179" rx="2.94318182" ry="2.93910256"></ellipse>
                <ellipse id="Oval-Copy-15" stroke="#E4F7FF" stroke-width="0.8" fill="#FFFFFF" cx="307.352273" cy="152.413462" rx="2.94318182" ry="2.93910256"></ellipse>
                <ellipse id="Oval-Copy-16" stroke="#E4F7FF" stroke-width="0.8" fill="#FFFFFF" cx="330.897727" cy="212.875" rx="2.94318182" ry="2.93910256"></ellipse>
                <ellipse id="Oval-Copy-17" stroke="#E4F7FF" stroke-width="0.8" fill="#FFFFFF" cx="283.806818" cy="315.323718" rx="2.94318182" ry="2.93910256"></ellipse>
                <ellipse id="Oval-Copy-18" stroke="#E4F7FF" stroke-width="0.8" fill="#FFFFFF" cx="139.170455" cy="172.567308" rx="2.94318182" ry="2.93910256"></ellipse>
            </g>
        </g>
    </g>
</svg>
