<?xml version="1.0" encoding="UTF-8"?>
<svg width="20px" height="16px" viewBox="0 0 20 16" version="1.1" xmlns="http://www.w3.org/2000/svg" xmlns:xlink="http://www.w3.org/1999/xlink">
    <g id="Page-1" stroke="none" stroke-width="1" fill="none" fill-rule="evenodd">
        <g id="Get-Involved" transform="translate(-281.000000, -1075.000000)" fill="#2119A7" fill-rule="nonzero">
            <g id="Group-9" transform="translate(281.000000, 1073.000000)">
                <path d="M18,2 L2,2 C0.9,2 0.01,2.9 0.01,4 L0,16 C0,17.1 0.9,18 2,18 L18,18 C19.1,18 20,17.1 20,16 L20,4 C20,2.9 19.1,2 18,2 Z M17.6,6.25 L10.53,10.67 C10.21,10.87 9.79,10.87 9.47,10.67 L2.4,6.25 C2.15,6.09 2,5.82 2,5.53 C2,4.86 2.73,4.46 3.3,4.81 L10,9 L16.7,4.81 C17.27,4.46 18,4.86 18,5.53 C18,5.82 17.85,6.09 17.6,6.25 Z" id="Shape"></path>
            </g>
        </g>
    </g>
</svg>
