<svg width="33px" height="33px" viewBox="0 0 33 33" version="1.1" xmlns="http://www.w3.org/2000/svg" xmlns:xlink="http://www.w3.org/1999/xlink">
    <g id="Page-1" stroke="none" stroke-width="1" fill="none" fill-rule="evenodd">
        <g id="Feedback-form-popup" transform="translate(-915.000000, -268.000000)" fill="#FF8748" fill-rule="nonzero">
            <g id="Group" transform="translate(472.000000, 248.000000)">
                <g id="noun_cancel_2014884" transform="translate(443.000000, 20.000000)">
                    <path d="M16.5,0 C7.40666667,0 0,7.40666667 0,16.5 C0,25.5933333 7.40666667,33 16.5,33 C25.5933333,33 33,25.5933333 33,16.5 C33,7.40666667 25.5933333,0 16.5,0 Z M16.5,30.7266667 C8.65333333,30.7266667 2.27333333,24.3466667 2.27333333,16.5 C2.27333333,8.65333333 8.65333333,2.27333333 16.5,2.27333333 C24.3466667,2.27333333 30.7266667,8.65333333 30.7266667,16.5 C30.7266667,24.3466667 24.3466667,30.7266667 16.5,30.7266667 Z" id="Shape"></path>
                    <path d="M23.1366667,10.6333333 C22.66,10.1566667 21.89,10.1566667 21.4133333,10.6333333 L16.8666667,15.1433333 L12.3566667,10.6333333 C11.88,10.1566667 11.11,10.1566667 10.6333333,10.6333333 C10.1566667,11.11 10.1566667,11.88 10.6333333,12.3566667 L15.1433333,16.8666667 L10.6333333,21.4133333 C10.1566667,21.89 10.1566667,22.66 10.6333333,23.1366667 C10.8533333,23.3566667 11.1833333,23.5033333 11.4766667,23.5033333 C11.77,23.5033333 12.1,23.3933333 12.32,23.1366667 L16.8666667,18.59 L21.3766667,23.1 C21.5966667,23.32 21.9266667,23.4666667 22.22,23.4666667 C22.55,23.4666667 22.8433333,23.3566667 23.0633333,23.1 C23.54,22.6233333 23.54,21.8533333 23.0633333,21.3766667 L18.59,16.8666667 L23.1,12.3566667 C23.6133333,11.88 23.6133333,11.11 23.1366667,10.6333333 Z" id="Path"></path>
                </g>
            </g>
        </g>
    </g>
</svg>
