<svg width="95px" height="95px" viewBox="0 0 95 95" version="1.1" xmlns="http://www.w3.org/2000/svg" xmlns:xlink="http://www.w3.org/1999/xlink">
    <g id="Page-1" stroke="none" stroke-width="1" fill="none" fill-rule="evenodd">
        <g id="Feedback-form-popup" transform="translate(-672.000000, -298.000000)" fill="#4CB800" fill-rule="nonzero">
            <g id="Group" transform="translate(472.000000, 248.000000)">
                <g id="noun_confirmation_1581270" transform="translate(200.000000, 50.000000)">
                    <path d="M47.5,1.205385e-14 C21.2664744,3.39014531e-15 3.39014531e-15,21.2664744 0,47.5 C-3.39014531e-15,73.7335256 21.2664744,95 47.5,95 C73.7335256,95 95,73.7335256 95,47.5 C94.9719502,21.2781018 73.7218982,0.0280498349 47.5,1.205385e-14 Z M47.5,88.2142857 C25.0141209,88.2142857 6.78571429,69.9858791 6.78571429,47.5 C6.78571429,25.0141209 25.0141209,6.78571429 47.5,6.78571429 C69.9858791,6.78571429 88.2142857,25.0141209 88.2142857,47.5 C88.1899764,69.9758022 69.9758022,88.1899764 47.5,88.2142857 Z" id="Shape"></path>
                    <path d="M68.85125,28.1369643 L37.3214286,59.6667857 L26.14875,48.4941071 C25.2968902,47.6121116 24.0354143,47.2583858 22.8491716,47.5688846 C21.6629289,47.8793835 20.7365263,48.805786 20.4260275,49.9920287 C20.1155287,51.1782714 20.4692544,52.4397473 21.35125,53.2916071 L34.9226786,66.8630357 C36.2475888,68.1875459 38.3952684,68.1875459 39.7201786,66.8630357 L73.64875,32.9344643 C74.9345486,31.6031788 74.9161598,29.4870338 73.6074202,28.1782941 C72.2986805,26.8695544 70.1825355,26.8511657 68.85125,28.1369643 Z" id="Path"></path>
                </g>
            </g>
        </g>
    </g>
</svg>
