<svg width="16px" height="16px" viewBox="0 0 16 16" version="1.1" xmlns="http://www.w3.org/2000/svg" xmlns:xlink="http://www.w3.org/1999/xlink">
    <g id="Page-1" stroke="none" stroke-width="1" fill="none" fill-rule="evenodd">
        <g id="Contact-Us" transform="translate(-251.000000, -631.000000)" fill="#2119A7" fill-rule="nonzero">
            <g id="Group-15" transform="translate(251.000000, 545.000000)">
                <g id="Group-11" transform="translate(0.000000, 84.000000)">
                    <g id="Twitter_Social_Icon_Rounded_Square_White" transform="translate(0.000000, 2.000000)">
                        <path d="M14,16 L2,16 C0.896,16 0,15.104 0,14 L0,2 C0,0.896 0.896,0 2,0 L14,0 C15.104,0 16,0.896 16,2 L16,14 C16,15.104 15.104,16 14,16 Z M6.1412565,12 C9.91476591,12 11.9795918,8.92125984 11.9795918,6.25590551 C11.9795918,6.16929134 11.9795918,6.08267717 11.9755902,5.99606299 C12.3757503,5.71259843 12.7238896,5.35433071 13,4.9488189 C12.6318527,5.11023622 12.2356943,5.21653543 11.8195278,5.26771654 C12.2436975,5.01968504 12.5678271,4.62204724 12.7238896,4.1496063 C12.3277311,4.38188976 11.887555,4.54724409 11.4193677,4.63779528 C11.0432173,4.24409449 10.5110044,4 9.92276911,4 C8.79031613,4 7.86994798,4.90551181 7.86994798,6.01968504 C7.86994798,6.17716535 7.88995598,6.33070866 7.92196879,6.48031496 C6.21728691,6.3976378 4.70468187,5.59055118 3.69227691,4.37007874 C3.51620648,4.66929134 3.41616647,5.01574803 3.41616647,5.38582677 C3.41616647,6.08661417 3.78031212,6.70472441 4.32853141,7.06692913 C3.99239696,7.05511811 3.67627051,6.96456693 3.40016006,6.81496063 C3.40016006,6.82283465 3.40016006,6.83070866 3.40016006,6.84251969 C3.40016006,7.81889764 4.10844338,8.63779528 5.04481793,8.82283465 C4.8727491,8.87007874 4.69267707,8.89370079 4.50460184,8.89370079 C4.37254902,8.89370079 4.2444978,8.88188976 4.12044818,8.85826772 C4.38055222,9.66141732 5.14085634,10.2440945 6.03721489,10.2598425 C5.33293317,10.8031496 4.44857943,11.1259843 3.48819528,11.1259843 C3.32412965,11.1259843 3.16006403,11.1181102 3,11.0984252 C3.90436174,11.6653543 4.98479392,12 6.1412565,12 L6.1412565,12 Z" id="Shape"></path>
                    </g>
                </g>
            </g>
        </g>
    </g>
</svg>
