<?xml version="1.0" encoding="UTF-8"?>
<svg width="73px" height="73px" viewBox="0 0 73 73" version="1.1" xmlns="http://www.w3.org/2000/svg" xmlns:xlink="http://www.w3.org/1999/xlink">
    <!-- Generator: Sketch 55 (78076) - https://sketchapp.com -->
    <title>Group 5</title>
    <desc>Created with Sketch.</desc>
    <g id="Page-1" stroke="none" stroke-width="1" fill="none" fill-rule="evenodd">
        <g id="Announcements" transform="translate(-186.000000, -422.000000)">
            <g id="Group-5" transform="translate(186.000000, 422.000000)">
                <g id="megaphone" transform="translate(11.230769, 11.230769)" fill-rule="nonzero">
                    <path d="M23.2064364,33.0443787 L23.2064364,44.7071006 C23.2064364,47.9336574 20.6151799,50.5384615 17.4048273,50.5384615 C14.1944747,50.5384615 11.6032182,47.9336574 11.6032182,44.7071006 L11.6032182,33.0443787 C11.6032182,31.9557284 12.453992,31.1005917 13.5370879,31.1005917 L21.2725667,31.1005917 C22.3556627,31.1005917 23.2064364,31.9557284 23.2064364,33.0443787 Z" id="Path" fill="#FF8278"></path>
                    <path d="M9.66934851,15.5502959 L7.73547881,15.5502959 C3.48109439,15.5502959 0,19.0489828 0,23.3254438 C0,27.6016456 3.48109439,31.1005917 7.73547881,31.1005917 L9.66934851,31.1005917 C10.7524445,31.1005917 11.6032182,30.2451959 11.6032182,29.1568047 L11.6032182,17.4940828 C11.6032182,16.4054325 10.7524445,15.5502959 9.66934851,15.5502959 Z" id="Path" fill="#4D5662"></path>
                    <path d="M11.6032182,23.3254438 L11.6032182,29.1568047 C11.6032182,30.2451959 10.7524445,31.1005917 9.66934851,31.1005917 L7.73547881,31.1005917 C3.48109439,31.1005917 0,27.6016456 0,23.3254438 L11.6032182,23.3254438 Z" id="Path" fill="#4D5662"></path>
                    <path d="M27.0741758,13.6065089 L27.0741758,31.6835982 L23.2064364,34.9881657 L13.5370879,34.9881657 C11.0229284,34.9881657 8.85699431,33.355255 8.08370428,31.1005917 C7.85163991,30.4784503 7.73547881,29.856568 7.73547881,29.1568047 L7.73547881,17.4940828 C7.73547881,14.2672669 10.3267353,11.6627219 13.5370879,11.6627219 L23.2064364,11.6627219 L27.0741758,13.6065089 Z" id="Path" fill="#FFA19D"></path>
                    <path d="M27.0741758,23.3254438 L27.0741758,31.6835982 L23.2064364,34.9881657 L13.5370879,34.9881657 C11.0229284,34.9881657 8.85699431,33.355255 8.08370428,31.1005917 C7.85163991,30.4784503 7.73547881,29.856568 7.73547881,29.1568047 L7.73547881,23.3254438 L27.0741758,23.3254438 Z" id="Path" fill="#FFA19D"></path>
                    <path d="M46.6707221,3.88757396 L46.6707221,42.7633136 C46.6707221,43.5408284 46.2065934,44.2405917 45.4717229,44.551468 C44.7755298,44.8626036 43.9244982,44.7071006 43.3832726,44.1238349 L41.1011774,41.869042 C37.9296311,38.6813609 29.6267549,34.9881657 25.1403061,34.9881657 L23.2064364,34.9881657 L23.2064364,11.6627219 L25.1403061,11.6627219 C29.6267549,11.6627219 37.9296311,7.96952663 41.1011774,4.78158639 L43.3832726,2.52666391 C43.9246272,1.9436574 44.7368524,1.78802485 45.4717229,2.09903077 C46.2065934,2.41003669 46.6707221,3.11005917 46.6707221,3.88757396 Z" id="Path" fill="#DDE7EC"></path>
                    <path d="M46.6707221,23.3254438 L46.6707221,42.7633136 C46.6707221,43.5408284 46.2065934,44.2405917 45.4717229,44.551468 C44.7755298,44.8626036 43.9244982,44.7071006 43.3832726,44.1238349 L41.1011774,41.869042 C37.9296311,38.6813609 29.6267549,34.9881657 25.1403061,34.9881657 L23.2064364,34.9881657 L23.2064364,23.3254438 L46.6707221,23.3254438 Z" id="Path" fill="#DDE7EC"></path>
                    <path d="M50.5384615,3.88757396 L50.5384615,42.7633136 C50.5384615,44.9014793 48.7979788,46.6508876 46.6707221,46.6508876 C44.5434655,46.6508876 42.8029827,44.9014793 42.8029827,42.7633136 L42.8029827,3.88757396 C42.8029827,1.74940828 44.5434655,0 46.6707221,0 C48.7979788,0 50.5384615,1.74940828 50.5384615,3.88757396 Z" id="Path" fill="#A2B0C5"></path>
                    <path d="M50.5384615,23.3254438 L50.5384615,42.7633136 C50.5384615,44.9014793 48.7979788,46.6508876 46.6707221,46.6508876 C44.5434655,46.6508876 42.8029827,44.9014793 42.8029827,42.7633136 L42.8029827,23.3254438 L50.5384615,23.3254438 Z" id="Path" fill="#A2B0C5"></path>
                </g>
                <rect id="Rectangle" stroke="#D7D7D7" stroke-width="0.8" x="0.4" y="0.4" width="72.2" height="72.2" rx="4"></rect>
            </g>
        </g>
    </g>
</svg>