<?xml version="1.0" encoding="UTF-8"?>
<svg width="22px" height="22px" viewBox="0 0 22 22" version="1.1" xmlns="http://www.w3.org/2000/svg" xmlns:xlink="http://www.w3.org/1999/xlink">
    <!-- Generator: Sketch 55 (78076) - https://sketchapp.com -->
    <title>Shape Copy</title>
    <desc>Created with Sketch.</desc>
    <g id="Page-1" stroke="none" stroke-width="1" fill="none" fill-rule="evenodd">
        <g id="School-report-card" transform="translate(-190.000000, -460.000000)" fill="#FF8748" fill-rule="nonzero" stroke="#FF8748" stroke-width="0.5">
            <g id="Group-24" transform="translate(191.000000, 457.000000)">
                <g id="Group-21">
                    <path d="M10.6990945,4.68421046 L10.6990945,18.9999992 L16.5655928,13.1347364 C16.7372585,12.9554984 16.9925377,12.8832414 17.2327042,12.9459099 C17.4728706,13.0085785 17.6602707,13.1963472 17.7224296,13.4365989 C17.7845885,13.6768506 17.7117609,13.9319182 17.532112,14.1031574 L11.5750684,20.0589465 C11.1582821,20.4767671 10.5923246,20.7115908 10.0021057,20.7115908 C9.41188678,20.7115908 8.84592926,20.4767671 8.42914298,20.0589465 L2.4742051,14.1073679 C2.30117691,13.9343761 2.2336017,13.6822352 2.29693441,13.445924 C2.36026713,13.2096129 2.544886,13.0250329 2.78124691,12.9617135 C3.01760781,12.8983942 3.26980188,12.9659551 3.44283007,13.1389469 L9.33880817,19.0336834 L9.33880817,4.68421046 C9.33880819,4.30633145 9.64520417,4 10.0231628,4 C10.4011214,4 10.7075174,4.30633145 10.7075174,4.68421046 L10.6990945,4.68421046 Z M20,19.5031571 C20,19.1252781 19.693604,18.8189466 19.3156454,18.8189466 C18.9376868,18.8189466 18.6312908,19.1252781 18.6312908,19.5031571 L18.6312908,21.7768412 C18.6301299,22.2492396 18.2467676,22.6315794 17.7742683,22.631578 L2.22994315,22.631578 C2.00228229,22.6326972 1.78353148,22.5432063 1.62195752,22.3828512 C1.46038356,22.2224962 1.36926582,22.0044562 1.3687092,21.7768412 L1.3687092,19.5031571 C1.3687092,19.1252781 1.06231321,18.8189466 0.684354601,18.8189466 C0.306395991,18.8189466 0,19.1252781 0,19.5031571 L0,21.7768412 C0.00232379715,23.0061604 1.00036336,24.0011631 2.22994315,23.999999 L17.7742683,23.999999 C19.002204,23.9988408 19.9976793,23.0045167 20,21.7768412 L20,19.5031571 Z" id="Shape-Copy"></path>
                </g>
            </g>
        </g>
    </g>
</svg>