<?xml version="1.0" encoding="UTF-8"?>
<svg width="19px" height="20px" viewBox="0 0 19 20" version="1.1" xmlns="http://www.w3.org/2000/svg" xmlns:xlink="http://www.w3.org/1999/xlink">
    <!-- Generator: Sketch 55 (78076) - https://sketchapp.com -->
    <title>Path</title>
    <desc>Created with Sketch.</desc>
    <g id="Page-1" stroke="none" stroke-width="1" fill="none" fill-rule="evenodd">
        <g id="School-report-card" transform="translate(-300.000000, -461.000000)" fill="#FF8748" fill-rule="nonzero">
            <g id="Group-24" transform="translate(191.000000, 457.000000)">
                <g id="Group-23" transform="translate(109.000000, 0.000000)">
                    <g id="Group-20">
                        <path d="M18.1119761,21.1351493 C18.1485939,22.1461252 17.6301313,23.0963782 16.7601943,23.6127335 C15.8902573,24.1290888 14.8077675,24.1290888 13.9378304,23.6127335 C13.0678934,23.0963782 12.5494308,22.1461252 12.5860486,21.1351493 C12.5853666,20.8902413 12.6182855,20.6463974 12.6838847,20.4104374 L4.83525579,15.8773651 C4.07663333,16.7406474 2.86261167,17.0437667 1.78723093,16.6384018 C0.711850181,16.2330369 -3.90798505e-14,15.20396 -3.90798505e-14,14.0547149 C-3.90798505e-14,12.9054697 0.711850181,11.8763929 1.78723093,11.471028 C2.86261167,11.0656631 4.07663333,11.3687823 4.83525579,12.2320647 L12.7237438,7.6736274 C12.6272423,7.39011052 12.5782681,7.09259224 12.5788015,6.79310255 C12.568739,5.45224848 13.5198613,4.29642466 14.8375758,4.04819225 C16.1552903,3.79995984 17.4617667,4.53049491 17.9402637,5.7831048 C18.4187607,7.03571469 17.932078,8.45123654 16.7844644,9.14475945 C15.6368509,9.83828236 14.1573636,9.61095139 13.2709012,8.60488207 L5.37878965,13.1705665 C5.57675094,13.7433774 5.57675094,14.3660524 5.37878965,14.9388633 L13.1694416,19.4357001 C13.8936985,18.5023894 15.1314738,18.133238 16.2486409,18.5173666 C17.3658079,18.9014952 18.1148307,19.9537904 18.1119761,21.1351493 Z" id="Path"></path>
                    </g>
                </g>
            </g>
        </g>
    </g>
</svg>